# xmcd
#
# Track frame offsets:
#	150
#	12910
#	28946
#	38997
#	59297
#	75434
#	86936
#	101729
#	119467
#	130294
#	138692
#	147120
#	163782
#	176867
#	187589
#	196434
#
# Disc length: 2763 seconds
#
# Revision: 1
# Processed by: cddbd v1.5.1PL2 Copyright (c) Steve Scherf et al.
# Submitted via: audiograbber 1.80.04
#
DISCID=e40ac910
DTITLE=Various Artist - Country Christmas
DYEAR=2005
DGENRE=Country
TTITLE0=Patty Loveless - Away In A Manger
TTITLE1=Alabama - Christmas In Dixie
TTITLE2=Tammy Wynette - O Little Town Of Bethlehem
TTITLE3=Collin Raye - The First Noel
TTITLE4=Tammy Cochran - Merry Christmas Darling
TTITLE5=Doug Stone - All I Want For Christmas Is You
TTITLE6=Joe Diffie - LeRoy The Redneck Reindeer
TTITLE7=Rosanne Cash - It Came Upon A Midnight Clear
TTITLE8=Willie Nelson - Frosty The Snowman
TTITLE9=Charley Pride - Deck The Halls
TTITLE10=George Jones - Joy To The World
TTITLE11=K.T. Oslin - Blue Christmas
TTITLE12=Oak Ridge Boys - Go Tell It On The Mountain
TTITLE13=Ray Price - I Heard The Bells On Christmas Day
TTITLE14=Charile Rich - O Holy Night
TTITLE15=Dottie West - The Lord's Prayer
EXTD=
EXTT0=
EXTT1=
EXTT2=
EXTT3=
EXTT4=
EXTT5=
EXTT6=
EXTT7=
EXTT8=
EXTT9=
EXTT10=
EXTT11=
EXTT12=
EXTT13=
EXTT14=
EXTT15=
PLAYORDER=
